<svg width="19" height="20" viewBox="0 0 19 20" fill="none" xmlns="http://www.w3.org/2000/svg">
<path id="Vector" d="M5.8536 6.87336C6.0722 6.77363 6.24758 6.59854 6.34766 6.3801L8.58726 1.49209C8.94429 0.71286 10.0521 0.714527 10.4067 1.49483L12.6261 6.37736C12.7261 6.59747 12.9025 6.77388 13.1226 6.87393L18.0052 9.09326C18.7855 9.44794 18.7871 10.5557 18.0079 10.9127L13.1199 13.1523C12.9015 13.2524 12.7264 13.4278 12.6266 13.6464L10.4062 18.5137C10.051 19.2923 8.9454 19.294 8.58784 18.5164L6.34708 13.6437C6.24733 13.4267 6.07326 13.2527 5.85634 13.1529L0.983594 10.9122C0.206033 10.5546 0.207699 9.44904 0.986335 9.09383L5.8536 6.87336Z" fill="#111111"/>
</svg>
