<svg width="25" height="24" viewBox="0 0 25 24" fill="none" xmlns="http://www.w3.org/2000/svg">
<g id="Frame">
<path id="Vector" d="M12.5 3C15.255 3 17.955 3.232 20.583 3.678C21.116 3.768 21.5 4.234 21.5 4.774V5.818C21.5 6.11348 21.4418 6.40606 21.3287 6.67904C21.2157 6.95203 21.0499 7.20007 20.841 7.409L15.409 12.841C15.2001 13.0499 15.0343 13.298 14.9213 13.571C14.8082 13.8439 14.75 14.1365 14.75 14.432V17.359C14.7501 17.777 14.6337 18.1867 14.414 18.5423C14.1943 18.8978 13.8799 19.1851 13.506 19.372L10.25 21V14.432C10.25 14.1365 10.1918 13.8439 10.0787 13.571C9.96566 13.298 9.79993 13.0499 9.591 12.841L4.159 7.409C3.95007 7.20007 3.78434 6.95203 3.67126 6.67904C3.55819 6.40606 3.5 6.11348 3.5 5.818V4.774C3.5 4.234 3.884 3.768 4.417 3.678C7.08757 3.22586 9.79143 2.99906 12.5 3Z" stroke="#2A46FF" stroke-width="1.5" stroke-linecap="round" stroke-linejoin="round"/>
</g>
</svg>
