<svg width="21" height="18" viewBox="0 0 21 18" fill="none" xmlns="http://www.w3.org/2000/svg">
<path id="Vector" d="M0.75 9.75V9C0.75 8.40326 0.987053 7.83097 1.40901 7.40901C1.83097 6.98705 2.40326 6.75 3 6.75H18C18.5967 6.75 19.169 6.98705 19.591 7.40901C20.0129 7.83097 20.25 8.40326 20.25 9V9.75M11.56 3.31L9.44 1.19C9.30073 1.05055 9.13534 0.939918 8.95328 0.864421C8.77123 0.788923 8.57609 0.750042 8.379 0.75H3C2.40326 0.75 1.83097 0.987053 1.40901 1.40901C0.987053 1.83097 0.75 2.40326 0.75 3V15C0.75 15.5967 0.987053 16.169 1.40901 16.591C1.83097 17.0129 2.40326 17.25 3 17.25H18C18.5967 17.25 19.169 17.0129 19.591 16.591C20.0129 16.169 20.25 15.5967 20.25 15V6C20.25 5.40326 20.0129 4.83097 19.591 4.40901C19.169 3.98705 18.5967 3.75 18 3.75H12.621C12.2233 3.74965 11.841 3.59138 11.56 3.31Z" stroke="url(#paint0_linear_6744_193)" stroke-width="1.5" stroke-linecap="round" stroke-linejoin="round"/>
<defs>
<linearGradient id="paint0_linear_6744_193" x1="0.75" y1="12.135" x2="20.2264" y2="12.1093" gradientUnits="userSpaceOnUse">
<stop stop-color="#FF71E8"/>
<stop offset="1" stop-color="#3838FF"/>
</linearGradient>
</defs>
</svg>
