<svg width="25" height="25" viewBox="0 0 25 25" fill="none" xmlns="http://www.w3.org/2000/svg">
<g id="Frame">
<path id="Vector" d="M2.75 13.25V12.5C2.75 11.9033 2.98705 11.331 3.40901 10.909C3.83097 10.4871 4.40326 10.25 5 10.25H20C20.5967 10.25 21.169 10.4871 21.591 10.909C22.0129 11.331 22.25 11.9033 22.25 12.5V13.25M13.56 6.81L11.44 4.69C11.3007 4.55055 11.1353 4.43992 10.9533 4.36442C10.7712 4.28892 10.5761 4.25004 10.379 4.25H5C4.40326 4.25 3.83097 4.48705 3.40901 4.90901C2.98705 5.33097 2.75 5.90326 2.75 6.5V18.5C2.75 19.0967 2.98705 19.669 3.40901 20.091C3.83097 20.5129 4.40326 20.75 5 20.75H20C20.5967 20.75 21.169 20.5129 21.591 20.091C22.0129 19.669 22.25 19.0967 22.25 18.5V9.5C22.25 8.90326 22.0129 8.33097 21.591 7.90901C21.169 7.48705 20.5967 7.25 20 7.25H14.621C14.2233 7.24965 13.841 7.09138 13.56 6.81Z" stroke="white" stroke-width="1.5" stroke-linecap="round" stroke-linejoin="round"/>
</g>
</svg>
