<svg width="232" height="84" viewBox="0 0 232 84" fill="none" xmlns="http://www.w3.org/2000/svg">
<g id="Group">
<g id="Group_2">
<path id="Vector" d="M86.3914 27.205C83.4152 19.2939 78.1742 12.5309 71.2408 7.64141C64.1462 2.64072 55.7928 0 47.0837 0C36.7016 0 26.7365 3.81932 19.0222 10.7575C11.6636 17.3732 6.90057 26.3155 5.51667 36.0417C2.71831 36.5754 0.595215 39.041 0.595215 41.9958C0.595215 45.337 3.31299 48.0583 6.65603 48.0583C9.99628 48.0583 12.7168 45.3398 12.7168 41.9958C12.7168 39.3551 11.0217 37.1063 8.65962 36.2752C9.97683 27.3579 14.3675 19.1689 21.1231 13.0952C28.2593 6.67963 37.477 3.14385 47.0837 3.14385C55.1397 3.14385 62.8679 5.58721 69.4289 10.2126C75.4175 14.4322 80.036 20.1612 82.865 26.852L71.074 31.2773C69.1427 26.9576 66.0914 23.2522 62.1815 20.4976C57.7408 17.3676 52.5192 15.7137 47.0809 15.7137C32.5916 15.7137 20.8035 27.5052 20.8035 41.9986V43.5691H38.0855V40.4253H23.9992C24.8107 28.3947 34.8537 18.8547 47.0809 18.8547C51.8662 18.8547 56.4625 20.3113 60.3724 23.066C64.1962 25.7595 67.0863 29.4871 68.7314 33.8401L69.2844 35.3078L86.9416 28.6782L86.3914 27.205ZM9.57389 41.9902C9.57389 43.5997 8.26502 44.9089 6.65603 44.9089C5.04703 44.9089 3.73817 43.5997 3.73817 41.9902C3.73817 40.3808 5.04703 39.0715 6.65603 39.0715C8.26502 39.0715 9.57389 40.3808 9.57389 41.9902Z" fill="url(#paint0_linear_6700_1354)"/>
<path id="Vector_2" d="M93.5055 42.0044C93.5055 38.6632 90.7877 35.9419 87.4446 35.9419C84.1044 35.9419 81.3838 38.6604 81.3838 42.0044C81.3838 44.6452 83.0817 46.8939 85.441 47.7251C84.1238 56.6424 79.7304 64.8314 72.9776 70.905C65.8414 77.3206 56.6237 80.8564 47.017 80.8564C38.9609 80.8564 31.2328 78.413 24.6717 73.7876C18.6832 69.568 14.0646 63.839 11.2329 57.1483L23.0239 52.723C24.9552 57.0426 28.0064 60.748 31.9164 63.5027C36.3571 66.6326 41.5787 68.2865 47.017 68.2865C61.5063 68.2865 73.2944 56.495 73.2944 42.0017V40.4311H56.0123V43.575H70.0987C69.2872 55.6055 59.2442 65.1455 47.017 65.1455C42.2317 65.1455 37.6354 63.6889 33.7255 60.9342C29.9017 58.2407 27.0116 54.5131 25.3665 50.1601L24.8135 48.6924L7.15625 55.322L7.70926 56.7952C10.6855 64.7063 15.9265 71.4693 22.8599 76.3588C29.9545 81.3595 38.3079 84.0002 47.017 84.0002C57.399 84.0002 67.3642 80.1809 75.0785 73.2428C82.437 66.6271 87.2001 57.6848 88.584 47.9586C91.3824 47.4249 93.5055 44.9593 93.5055 42.0044ZM87.4474 44.9231C85.8384 44.9231 84.5296 43.6139 84.5296 42.0044C84.5296 40.395 85.8384 39.0857 87.4474 39.0857C89.0564 39.0857 90.3653 40.395 90.3653 42.0044C90.3653 43.6139 89.0564 44.9231 87.4474 44.9231Z" fill="url(#paint1_linear_6700_1354)"/>
<g id="Group_3">
<path id="Vector_3" d="M47.0843 52.5672C41.2569 52.5672 36.5161 47.8251 36.5161 41.996C36.5161 36.167 41.2569 31.4248 47.0843 31.4248C52.9117 31.4248 57.6525 36.167 57.6525 41.996C57.6498 47.8251 52.9117 52.5672 47.0843 52.5672ZM47.0843 34.5687C42.991 34.5687 39.6591 37.9015 39.6591 41.996C39.6591 46.0905 42.991 49.4234 47.0843 49.4234C51.1777 49.4234 54.5096 46.0905 54.5096 41.996C54.5096 37.9015 51.1777 34.5687 47.0843 34.5687Z" fill="url(#paint2_linear_6700_1354)"/>
</g>
</g>
<g id="Group_4">
<path id="Vector_4" d="M139.642 36.5867C139.164 36.1865 138.661 35.9863 138.135 35.9863C137.702 35.9863 137.291 36.1003 136.902 36.3282C136.513 36.5562 136.251 36.8869 136.115 37.3206L131.052 52.6812L126.839 42.1156C126.681 41.7042 126.428 41.379 126.086 41.1399C125.744 40.9008 125.355 40.7924 124.922 40.8147C124.488 40.7924 124.099 40.9008 123.757 41.1399C123.416 41.379 123.152 41.7042 122.971 42.1156L118.525 52.798L113.423 37.3206C113.286 36.8869 113.028 36.5562 112.653 36.3282C112.278 36.1003 111.872 35.9863 111.438 35.9863C110.913 35.9863 110.405 36.1865 109.916 36.5867C109.424 36.9842 109.179 37.5291 109.179 38.2129C109.179 38.4186 109.213 38.6465 109.282 38.8967L116.026 58.7577C116.163 59.1691 116.415 59.4832 116.78 59.7C117.144 59.9168 117.51 60.0391 117.874 60.0614C118.263 60.0614 118.644 59.9474 119.022 59.7195C119.4 59.4915 119.689 59.1607 119.895 58.7271L124.783 47.675L129.649 58.7271C129.854 59.1607 130.146 59.4915 130.521 59.7195C130.899 59.9474 131.28 60.0614 131.669 60.0614C132.058 60.0391 132.428 59.9196 132.781 59.7C133.133 59.4832 133.378 59.1691 133.517 58.7577L140.261 38.8967C140.331 38.6465 140.364 38.4186 140.364 38.2129C140.359 37.5291 140.12 36.987 139.642 36.5867Z" fill="#111111"/>
<path id="Vector_5" d="M159.984 50.5802C159.984 52.4482 159.567 54.0937 158.736 55.517C157.905 56.9402 156.791 58.0493 155.39 58.847C153.989 59.6448 152.425 60.0423 150.696 60.0423C148.965 60.0423 147.401 59.6448 146.003 58.847C144.602 58.0493 143.488 56.9402 142.657 55.517C141.826 54.0937 141.412 52.4482 141.412 50.5802C141.412 48.7122 141.826 47.0694 142.657 45.6434C143.488 44.223 144.602 43.1056 146.003 42.2967C147.403 41.4906 148.968 41.0847 150.696 41.0847C152.425 41.0847 153.992 41.4906 155.39 42.2967C156.791 43.1056 157.905 44.223 158.736 45.6434C159.567 47.0694 159.984 48.7122 159.984 50.5802ZM155.885 50.5802C155.885 49.4183 155.651 48.412 155.184 47.5586C154.718 46.7053 154.092 46.0382 153.306 45.56C152.519 45.0819 151.65 44.8429 150.694 44.8429C149.738 44.8429 148.868 45.0819 148.082 45.56C147.295 46.0382 146.67 46.7053 146.203 47.5586C145.736 48.412 145.503 49.4183 145.503 50.5802C145.503 51.7199 145.736 52.715 146.203 53.5684C146.67 54.4217 147.295 55.0889 148.082 55.567C148.868 56.0451 149.738 56.2841 150.694 56.2841C151.65 56.2841 152.519 56.0451 153.306 55.567C154.092 55.0889 154.718 54.4217 155.184 53.5684C155.651 52.715 155.885 51.7199 155.885 50.5802Z" fill="#111111"/>
<path id="Vector_6" d="M185.958 42.3237C185.569 41.9234 185.113 41.7232 184.588 41.7232C183.537 41.7232 182.876 42.1569 182.604 43.0241L178.935 52.8699L176.304 45.7288C176.143 45.3174 175.931 45.0033 175.67 44.7865C175.406 44.5697 175.025 44.4612 174.522 44.4612C173.633 44.4612 173.005 44.8838 172.641 45.7288L169.94 53.0589L166.238 43.0241C166.102 42.5683 165.861 42.2375 165.519 42.029C165.177 41.8233 164.788 41.7205 164.354 41.7205C163.715 41.7205 163.212 41.9373 162.848 42.3709C162.484 42.8045 162.301 43.2966 162.301 43.8414C162.301 44.1138 162.345 44.3779 162.437 44.628L167.675 58.7378C167.834 59.1937 168.125 59.5412 168.548 59.783C168.97 60.022 169.398 60.1082 169.832 60.0387C170.607 59.9942 171.191 59.5606 171.577 58.7378L174.333 50.3153L177.26 58.7378C177.649 59.5606 178.23 59.9942 179.005 60.0387C179.461 60.1082 179.894 60.022 180.305 59.783C180.717 59.5439 181 59.1965 181.161 58.7378L186.4 44.628C186.444 44.5141 186.48 44.3945 186.502 44.2694C186.525 44.1444 186.536 43.9998 186.536 43.8414C186.538 43.2326 186.344 42.7239 185.958 42.3237Z" fill="#111111"/>
<path id="Vector_7" d="M218.362 57.3341L209.962 37.3202C209.803 36.8866 209.545 36.5502 209.192 36.314C208.839 36.0749 208.458 35.9554 208.047 35.9554C207.614 35.9109 207.211 36.0138 206.835 36.2639C206.46 36.5141 206.18 36.8671 205.999 37.323L197.498 57.7455C197.429 57.9734 197.396 58.1902 197.396 58.3932C197.396 58.8963 197.543 59.316 197.84 59.6579C198.135 59.9998 198.59 60.1694 199.205 60.1694C199.591 60.1694 199.949 60.0499 200.28 59.8108C200.611 59.5718 200.855 59.2354 201.014 58.8046L202.784 54.6378H212.966L214.739 58.7684C214.919 59.2021 215.178 59.5412 215.506 59.7941C215.836 60.0443 216.206 60.1694 216.614 60.1694C217.092 60.1694 217.532 59.9859 217.929 59.6218C218.326 59.2577 218.526 58.7684 218.526 58.1541C218.535 57.9012 218.476 57.6287 218.362 57.3341ZM204.46 50.7073L207.858 42.7156L211.287 50.7073H204.46Z" fill="#111111"/>
<path id="Vector_8" d="M229.437 56.1415H228.375V39.9414H229.445C230.526 39.9414 231.404 39.0658 231.404 37.9817C231.404 36.9004 230.529 36.022 229.445 36.022H223.04C221.959 36.022 221.081 36.8976 221.081 37.9817C221.081 39.063 221.956 39.9414 223.04 39.9414H224.11V56.1415H223.034C221.953 56.1415 221.075 57.0171 221.075 58.1012C221.075 59.1825 221.951 60.0609 223.034 60.0609H229.44C230.521 60.0609 231.399 59.1853 231.399 58.1012C231.396 57.0199 230.518 56.1415 229.437 56.1415Z" fill="#111111"/>
</g>
</g>
<defs>
<linearGradient id="paint0_linear_6700_1354" x1="0.595215" y1="33.1603" x2="86.8372" y2="32.9872" gradientUnits="userSpaceOnUse">
<stop stop-color="#FF71E8"/>
<stop offset="1" stop-color="#5757FF"/>
</linearGradient>
<linearGradient id="paint1_linear_6700_1354" x1="7.15625" y1="69.1022" x2="93.401" y2="68.9291" gradientUnits="userSpaceOnUse">
<stop stop-color="#FF71E8"/>
<stop offset="1" stop-color="#5757FF"/>
</linearGradient>
<linearGradient id="paint2_linear_6700_1354" x1="36.5161" y1="46.0131" x2="57.627" y2="45.9895" gradientUnits="userSpaceOnUse">
<stop stop-color="#FF71E8"/>
<stop offset="1" stop-color="#5757FF"/>
</linearGradient>
</defs>
</svg>
