<svg width="99" height="35" viewBox="0 0 99 35" fill="none" xmlns="http://www.w3.org/2000/svg">
<g id="Group">
<g id="Group_2">
<path id="Vector" d="M36.7468 11.4235C35.4721 8.17432 33.2273 5.39664 30.2577 3.38845C27.2191 1.33459 23.6413 0.25 19.9111 0.25C15.4645 0.25 11.1964 1.81865 7.89233 4.66826C4.74064 7.38543 2.7006 11.0582 2.10788 15.0529C0.909326 15.2721 0 16.2847 0 17.4983C0 18.8706 1.16403 19.9883 2.59586 19.9883C4.02651 19.9883 5.19173 18.8718 5.19173 17.4983C5.19173 16.4137 4.4657 15.4901 3.45401 15.1488C4.01817 11.4863 5.89872 8.12295 8.79214 5.6284C11.8486 2.99343 15.7966 1.54123 19.9111 1.54123C23.3616 1.54123 26.6716 2.54475 29.4817 4.44449C32.0466 6.17754 34.0247 8.53052 35.2364 11.2785L30.1863 13.0961C29.3591 11.3219 28.0522 9.80006 26.3776 8.66866C24.4756 7.38315 22.2392 6.70385 19.91 6.70385C13.7042 6.70385 8.65526 11.5468 8.65526 17.4995V18.1445H16.0572V16.8533H10.024C10.3716 11.9121 14.673 7.99394 19.91 7.99394C21.9595 7.99394 23.9281 8.59217 25.6028 9.72356C27.2405 10.8298 28.4783 12.3608 29.1829 14.1487L29.4198 14.7515L36.9824 12.0286L36.7468 11.4235ZM3.84559 17.496C3.84559 18.1571 3.285 18.6948 2.59586 18.6948C1.90673 18.6948 1.34614 18.1571 1.34614 17.496C1.34614 16.835 1.90673 16.2973 2.59586 16.2973C3.285 16.2973 3.84559 16.835 3.84559 17.496Z" fill="#111111"/>
<path id="Vector_2" d="M39.7937 17.5017C39.7937 16.1294 38.6297 15.0117 37.1978 15.0117C35.7672 15.0117 34.602 16.1283 34.602 17.5017C34.602 18.5863 35.3292 19.5099 36.3397 19.8513C35.7755 23.5137 33.8938 26.8771 31.0016 29.3716C27.9451 32.0066 23.9971 33.4588 19.8825 33.4588C16.4321 33.4588 13.1221 32.4553 10.312 30.5555C7.74708 28.8225 5.76894 26.4695 4.55611 23.7215L9.6062 21.904C10.4334 23.6781 11.7403 25.2 13.4149 26.3314C15.3169 27.6169 17.5533 28.2962 19.8825 28.2962C26.0883 28.2962 31.1372 23.4532 31.1372 17.5006V16.8555H23.7353V18.1467H29.7685C29.4209 23.0879 25.1195 27.0061 19.8825 27.0061C17.833 27.0061 15.8644 26.4079 14.1897 25.2765C12.552 24.1702 11.3142 22.6392 10.6096 20.8514L10.3727 20.2486L2.81006 22.9714L3.04691 23.5765C4.32164 26.8257 6.56639 29.6034 9.53598 31.6116C12.5746 33.6654 16.1524 34.75 19.8825 34.75C24.3292 34.75 28.5973 33.1814 31.9014 30.3318C35.0531 27.6146 37.0931 23.9418 37.6858 19.9472C38.8844 19.728 39.7937 18.7153 39.7937 17.5017ZM37.199 18.7004C36.5099 18.7004 35.9493 18.1627 35.9493 17.5017C35.9493 16.8407 36.5099 16.3029 37.199 16.3029C37.8882 16.3029 38.4487 16.8407 38.4487 17.5017C38.4487 18.1627 37.8882 18.7004 37.199 18.7004Z" fill="#111111"/>
<g id="Group_3">
<path id="Vector_3" d="M19.9117 21.8403C17.4158 21.8403 15.3853 19.8926 15.3853 17.4985C15.3853 15.1044 17.4158 13.1567 19.9117 13.1567C22.4075 13.1567 24.4381 15.1044 24.4381 17.4985C24.4369 19.8926 22.4075 21.8403 19.9117 21.8403ZM19.9117 14.448C18.1585 14.448 16.7314 15.8168 16.7314 17.4985C16.7314 19.1802 18.1585 20.549 19.9117 20.549C21.6648 20.549 23.0919 19.1802 23.0919 17.4985C23.0919 15.8168 21.6648 14.448 19.9117 14.448Z" fill="#111111"/>
</g>
</g>
<g id="Group_4">
<path id="Vector_4" d="M59.554 15.2764C59.3493 15.112 59.1339 15.0298 58.9089 15.0298C58.7232 15.0298 58.5471 15.0766 58.3804 15.1702C58.2138 15.2638 58.1019 15.3997 58.0436 15.5778L55.875 21.8866L54.0707 17.5472C54.0028 17.3782 53.8945 17.2446 53.7481 17.1464C53.6017 17.0483 53.4351 17.0037 53.2494 17.0129C53.0637 17.0037 52.8971 17.0483 52.7507 17.1464C52.6043 17.2446 52.4913 17.3782 52.4139 17.5472L50.5095 21.9346L48.3243 15.5778C48.266 15.3997 48.1553 15.2638 47.9946 15.1702C47.8339 15.0766 47.6602 15.0298 47.4745 15.0298C47.2495 15.0298 47.0317 15.112 46.8222 15.2764C46.6116 15.4396 46.5068 15.6634 46.5068 15.9443C46.5068 16.0287 46.5211 16.1224 46.5509 16.2251L49.4395 24.3823C49.4979 24.5513 49.6062 24.6803 49.7621 24.7694C49.918 24.8584 50.0751 24.9086 50.231 24.9178C50.3977 24.9178 50.5607 24.871 50.7226 24.7774C50.8845 24.6837 51.0082 24.5479 51.0963 24.3698L53.1899 19.8305L55.274 24.3698C55.3621 24.5479 55.487 24.6837 55.6477 24.7774C55.8096 24.871 55.9726 24.9178 56.1393 24.9178C56.3059 24.9086 56.4642 24.8596 56.6154 24.7694C56.7665 24.6803 56.8712 24.5513 56.9308 24.3823L59.8194 16.2251C59.8492 16.1224 59.8635 16.0287 59.8635 15.9443C59.8611 15.6634 59.7587 15.4408 59.554 15.2764Z" fill="#111111"/>
<path id="Vector_5" d="M68.2667 21.024C68.2667 21.7912 68.0882 22.467 67.7323 23.0516C67.3764 23.6361 66.8992 24.0916 66.2993 24.4193C65.6994 24.7469 65.0293 24.9102 64.289 24.9102C63.5475 24.9102 62.8774 24.7469 62.2787 24.4193C61.6789 24.0916 61.2016 23.6361 60.8457 23.0516C60.4898 22.467 60.3125 21.7912 60.3125 21.024C60.3125 20.2568 60.4898 19.582 60.8457 18.9964C61.2016 18.413 61.6789 17.954 62.2787 17.6218C62.8786 17.2907 63.5487 17.124 64.289 17.124C65.0293 17.124 65.7006 17.2907 66.2993 17.6218C66.8992 17.954 67.3764 18.413 67.7323 18.9964C68.0882 19.582 68.2667 20.2568 68.2667 21.024ZM66.5111 21.024C66.5111 20.5467 66.4112 20.1335 66.2112 19.783C66.0113 19.4325 65.7435 19.1585 65.4066 18.9621C65.0698 18.7657 64.6973 18.6676 64.2878 18.6676C63.8784 18.6676 63.5059 18.7657 63.169 18.9621C62.8322 19.1585 62.5644 19.4325 62.3644 19.783C62.1645 20.1335 62.0645 20.5467 62.0645 21.024C62.0645 21.492 62.1645 21.9008 62.3644 22.2513C62.5644 22.6017 62.8322 22.8758 63.169 23.0721C63.5059 23.2685 63.8784 23.3667 64.2878 23.3667C64.6973 23.3667 65.0698 23.2685 65.4066 23.0721C65.7435 22.8758 66.0113 22.6017 66.2112 22.2513C66.4112 21.9008 66.5111 21.492 66.5111 21.024Z" fill="#111111"/>
<path id="Vector_6" d="M79.3911 17.633C79.2245 17.4686 79.0293 17.3864 78.8043 17.3864C78.3544 17.3864 78.0712 17.5645 77.9545 17.9207L76.3834 21.9645L75.2563 19.0315C75.1873 18.8626 75.0968 18.7336 74.9849 18.6445C74.8719 18.5555 74.7088 18.5109 74.4934 18.5109C74.1125 18.5109 73.8435 18.6845 73.6876 19.0315L72.5307 22.0421L70.9453 17.9207C70.887 17.7335 70.7835 17.5976 70.6371 17.512C70.4907 17.4275 70.324 17.3853 70.1384 17.3853C69.8646 17.3853 69.6492 17.4743 69.4933 17.6524C69.3373 17.8305 69.2588 18.0326 69.2588 18.2563C69.2588 18.3682 69.2778 18.4767 69.3171 18.5794L71.5607 24.3746C71.6285 24.5618 71.7535 24.7045 71.9344 24.8038C72.1153 24.902 72.2986 24.9374 72.4843 24.9089C72.8163 24.8906 73.0663 24.7125 73.2317 24.3746L74.4124 20.9153L75.6657 24.3746C75.8324 24.7125 76.0811 24.8906 76.4132 24.9089C76.6084 24.9374 76.7941 24.902 76.9702 24.8038C77.1464 24.7056 77.2678 24.5629 77.3368 24.3746L79.5804 18.5794C79.5994 18.5326 79.6149 18.4835 79.6244 18.4322C79.6339 18.3808 79.6387 18.3214 79.6387 18.2563C79.6399 18.0063 79.5566 17.7974 79.3911 17.633Z" fill="#111111"/>
<path id="Vector_7" d="M93.2702 23.7979L89.6722 15.5779C89.6044 15.3998 89.4937 15.2616 89.3425 15.1646C89.1914 15.0664 89.0283 15.0173 88.8521 15.0173C88.6665 14.9991 88.4939 15.0413 88.3332 15.144C88.1725 15.2468 88.0523 15.3918 87.975 15.579L84.3341 23.9669C84.3043 24.0605 84.29 24.1495 84.29 24.2329C84.29 24.4395 84.3531 24.6119 84.4805 24.7523C84.6066 24.8928 84.8018 24.9624 85.0649 24.9624C85.2303 24.9624 85.3838 24.9133 85.5255 24.8151C85.6671 24.7169 85.7719 24.5788 85.8397 24.4018L86.5979 22.6905H90.9588L91.7182 24.387C91.7956 24.5651 91.9062 24.7044 92.0467 24.8083C92.1883 24.911 92.3466 24.9624 92.5216 24.9624C92.7263 24.9624 92.9144 24.887 93.0846 24.7375C93.2548 24.5879 93.3405 24.387 93.3405 24.1347C93.344 24.0308 93.319 23.9189 93.2702 23.7979ZM87.3156 21.0762L88.7712 17.7939L90.2399 21.0762H87.3156Z" fill="#111111"/>
<path id="Vector_8" d="M98.0135 23.3078H97.5588V16.6542H98.0171C98.4801 16.6542 98.8562 16.2946 98.8562 15.8493C98.8562 15.4052 98.4812 15.0444 98.0171 15.0444H95.2736C94.8106 15.0444 94.4345 15.4041 94.4345 15.8493C94.4345 16.2934 94.8094 16.6542 95.2736 16.6542H95.7318V23.3078H95.2712C94.8082 23.3078 94.4321 23.6675 94.4321 24.1127C94.4321 24.5568 94.807 24.9176 95.2712 24.9176H98.0147C98.4777 24.9176 98.8538 24.558 98.8538 24.1127C98.8526 23.6686 98.4765 23.3078 98.0135 23.3078Z" fill="#111111"/>
</g>
</g>
</svg>
